<?xml version="1.0" encoding="utf-8"?>
<!-- Generator: Adobe Illustrator 26.0.2, SVG Export Plug-In . SVG Version: 6.00 Build 0)  -->
<svg version="1.1" xmlns="http://www.w3.org/2000/svg" xmlns:xlink="http://www.w3.org/1999/xlink" x="0px" y="0px"
	 viewBox="0 0 140 40" enable-background="new 0 0 140 40" xml:space="preserve">
<g id="guides" display="none">
</g>
<g id="images">
</g>
<g id="Layer_5">
	<g>
		<g>
			<g>
				<path fill="#676767" d="M3.4998,33.2433c-1.8208,0-3.092-0.5497-3.092-0.5497v-1.5803c0,0,1.9239,0.6184,3.0576,0.6184
					c0.9963,0,1.9926-0.1718,1.9926-1.4086c0-0.9276-0.6871-1.1337-1.546-1.3742l-0.7902-0.2061
					c-1.0307-0.3092-2.7484-0.7215-2.7484-2.8171c0-2.3362,1.8895-2.9202,3.8478-2.9202c1.7521,0,2.7484,0.584,2.7484,0.584v1.546
					c0,0-1.3055-0.6184-2.8171-0.6184c-1.2368,0-2.027,0.2405-2.027,1.3055c0,0.9276,0.7215,1.1337,1.5803,1.3742l0.9619,0.2748
					c1.1337,0.3092,2.5766,0.9619,2.5766,2.8171C7.2789,32.6249,5.5611,33.2433,3.4998,33.2433z"/>
				<path fill="#676767" d="M13.9094,33.2433c-1.9239,0-4.6036-0.6184-4.6036-5.1189c0-4.3975,2.7141-5.1189,4.6036-5.1189
					c1.7865,0,4.6036,0.6184,4.6036,5.1189C18.513,32.6936,15.7303,33.2433,13.9094,33.2433z M13.9094,24.3796
					c-1.0307,0-2.7484,0.3092-2.7484,3.7447c0,3.4699,1.9926,3.7104,2.7484,3.7104c0.9276,0,2.7484-0.3779,2.7484-3.7104
					C16.6235,24.6545,14.9057,24.3796,13.9094,24.3796z"/>
				<path fill="#676767" d="M20.9179,33.0715V19.9478h1.8552v13.1237C22.7731,33.0715,20.9179,33.0715,20.9179,33.0715z"/>
				<path fill="#676767" d="M31.9803,33.0715l-0.1718-1.2711c0,0-1.1337,1.4773-3.2294,1.4773
					c-1.5116,0-3.1607-0.5497-3.1607-3.0233c0-2.7484,2.5766-3.2637,4.157-3.2637h2.1644v-0.8589
					c0-1.2711-0.7558-1.5803-2.0613-1.5803c-1.5803,0-3.4355,0.6871-3.4355,0.6871v-1.5116c0,0,1.6834-0.6871,3.7104-0.6871
					c2.1644,0,3.6416,0.7902,3.6416,3.4012v6.6649h-1.6147V33.0715z M31.7398,28.09l-1.7865,0.0344
					c-1.6834,0.0344-2.7141,0.481-2.7141,2.0613c0,1.2711,0.7902,1.6491,1.7865,1.6491c1.3742,0,2.7141-1.2711,2.7141-1.2711V28.09z
					"/>
				<path fill="#676767" d="M40.3286,24.6888c-1.0994,0-1.9582,1.2024-1.9582,1.2024v7.1802h-1.8552v-9.8943h1.4773l0.2405,1.3742
					c0,0,0.6184-1.546,2.3018-1.546c0.9619,0,1.3399,0.2748,1.3399,0.2748v1.6834C41.8746,24.9637,41.2905,24.6888,40.3286,24.6888z
					"/>
				<path fill="#676767" d="M56.5786,33.0715H54.002l-1.546-5.2563c-0.4123-1.4086-0.9963-3.7104-0.9963-3.7104
					s-0.6184,2.3362-1.0307,3.676l-1.5116,5.2907h-2.5766l-2.611-9.8943h2.13l1.2024,5.6686
					c0.2748,1.3055,0.584,3.3668,0.584,3.3668s0.3779-2.0613,0.7902-3.3668l1.6834-5.6686h2.6797l1.6834,5.6686
					c0.3779,1.2711,0.7902,3.3668,0.7902,3.3668s0.3092-1.8895,0.6184-3.3668l1.2024-5.6686h2.0957L56.5786,33.0715z"/>
				<path fill="#676767" d="M61.5257,33.0715v-9.9287h1.8552v9.9287H61.5257z"/>
				<path fill="#676767" d="M73.2065,33.0715v-6.768c0-1.2368-0.5153-1.6834-1.7865-1.6834c-1.6491,0-3.2637,1.2368-3.2637,1.2368
					v7.2146h-1.8552v-9.8943h1.4429l0.3779,1.4086c0,0,1.649-1.5803,3.7447-1.5803c1.8208,0,3.195,0.7902,3.195,3.3325v6.7336
					H73.2065z"/>
				<path fill="#676767" d="M84.7499,33.0715l-0.2061-1.2368c0,0-1.0307,1.4429-3.195,1.4429c-1.546,0-4.0883-0.6871-4.0883-5.1189
					c0-4.5005,3.1607-5.1189,4.4662-5.1189c1.7865,0,2.611,0.9963,2.611,0.9963v-4.0883h1.8552v13.1237
					C86.1928,33.0715,84.7499,33.0715,84.7499,33.0715z M84.3376,25.479c0,0-1.0307-0.9963-2.4392-0.9963
					c-1.3742,0-2.7828,0.5497-2.7828,3.6416c0,3.2637,1.4429,3.6417,2.611,3.6417c1.3399,0,2.611-1.1337,2.611-1.1337V25.479z"/>
				<path fill="#676767" d="M91.9301,33.2433c-1.8208,0-3.092-0.5497-3.092-0.5497v-1.5803c0,0,1.9239,0.6184,3.0576,0.6184
					c0.9963,0,1.9926-0.1718,1.9926-1.4086c0-0.9276-0.6871-1.1337-1.546-1.3742l-0.7902-0.2061
					c-1.0307-0.3092-2.7484-0.7215-2.7484-2.8171c0-2.3362,1.8895-2.9202,3.8478-2.9202c1.7521,0,2.7484,0.584,2.7484,0.584v1.546
					c0,0-1.3055-0.6184-2.8171-0.6184c-1.2368,0-2.027,0.2405-2.027,1.3055c0,0.9276,0.7215,1.1337,1.5803,1.3742l0.9619,0.2748
					c1.1337,0.3092,2.5766,0.9619,2.5766,2.8171C95.7092,32.6249,94.0258,33.2433,91.9301,33.2433z"/>
			</g>
			<g>
				<path fill="#F99E1E" d="M104.401,17.1651c0.1031-0.0344,0.1718-0.0344,0.2405-0.0687c1.8895-0.5497,3.7104-1.2711,5.5655-2.027
					c1.7865-0.7558,3.5386-1.649,5.1189-2.9202c1.5803-1.3055,2.8515-2.9889,3.5729-5.0502
					c0.1031-0.2748,0.3092-0.7215,0.3092-1.0307c-2.4736,3.4012-12.3335,3.7447-12.3335,3.7447l2.3362-2.13
					c-9.3446,0.0344-15.8721,3.9852-18.861,6.1152c3.8134,0.4123,7.2833,2.027,9.9974,4.4662
					C101.687,17.8522,103.0612,17.543,104.401,17.1651z"/>
				<path fill="#F99E1E" d="M119.8265,16.8215c0,0-9.0698-0.6871-18.5175,2.3362c1.2368,1.3055,2.3018,2.8171,3.1263,4.4318
					C109.3825,20.8754,116.2879,17.3368,119.8265,16.8215z"/>
				<path fill="#F99E1E" d="M105.0538,25.0324c0.584,1.4773,0.9619,3.0576,1.1337,4.7067l8.6575-8.898L105.0538,25.0324z"/>
			</g>
		</g>
	</g>
</g>
</svg>
